<svg width="36" height="36" viewBox="0 0 36 36" fill="none" xmlns="http://www.w3.org/2000/svg">
<g clip-path="url(#clip0_78_446)">
<path fill-rule="evenodd" clip-rule="evenodd" d="M17.9989 0C8.05948 0 0 8.0903 0 18.0725C0 26.0555 5.15699 32.8289 12.3109 35.2188C13.2109 35.3849 13.5394 34.8269 13.5394 34.348C13.5394 33.9188 13.5236 32.7826 13.5146 31.2747C8.50723 32.3669 7.45088 28.8521 7.45088 28.8521C6.63301 26.7648 5.45288 26.2091 5.45288 26.2091C3.81826 25.0876 5.57661 25.1101 5.57661 25.1101C7.38224 25.2378 8.33286 26.9726 8.33286 26.9726C9.93935 29.7342 12.546 28.9368 13.572 28.4737C13.7351 27.3058 14.2009 26.5096 14.715 26.0578C10.7179 25.6015 6.51599 24.0519 6.51599 17.1271C6.51599 15.154 7.21688 13.5411 8.36888 12.2772C8.18326 11.8198 7.56564 9.9833 8.54439 7.4951C8.54439 7.4951 10.0564 7.00942 13.4944 9.3474C14.931 8.94644 16.47 8.74652 18.0011 8.73862C19.53 8.74652 21.0701 8.94644 22.5079 9.3474C25.9436 7.00942 27.4523 7.4951 27.4523 7.4951C28.4344 9.9833 27.8167 11.8198 27.6311 12.2772C28.7854 13.5411 29.4818 15.154 29.4818 17.1271C29.4818 24.0688 25.2731 25.5969 21.2636 26.0442C21.9094 26.6021 22.4854 27.7045 22.4854 29.3908C22.4854 31.8067 22.4629 33.755 22.4629 34.348C22.4629 34.8314 22.7869 35.3939 23.7004 35.2165C30.8475 32.8221 36 26.0532 36 18.0725C36 8.0903 27.9405 0 17.9989 0Z" fill="#150E27"/>
</g>
<defs>
<clipPath id="clip0_78_446">
<rect width="36" height="35.25" fill="white"/>
</clipPath>
</defs>
</svg>
