<svg width="36" height="36" viewBox="0 0 36 36" fill="none" xmlns="http://www.w3.org/2000/svg">
<g clip-path="url(#clip0_53_405)">
<path d="M35.9603 10.638C35.8715 8.72356 35.5656 7.41106 35.1215 6.26632C34.6577 5.08211 34.0458 4.07553 33.0491 3.07882C32.0524 2.08211 31.0458 1.4604 29.8616 1.00645C28.7169 0.562372 27.4044 0.25645 25.4899 0.167635C23.5656 0.0788189 22.9537 0.059082 18.0688 0.059082C13.1741 0.059082 12.5623 0.0788189 10.6478 0.167635C8.73332 0.25645 7.42082 0.562372 6.27608 1.00645C5.09187 1.47027 4.0853 2.08211 3.08858 3.07882C2.09187 4.07553 1.47016 5.08211 1.01622 6.26632C0.572137 7.41106 0.266216 8.72356 0.1774 10.638C0.0885845 12.5624 0.0688477 13.1742 0.0688477 18.0591C0.0688477 22.9538 0.0885845 23.5657 0.1774 25.4801C0.266216 27.3946 0.572137 28.7071 1.01622 29.8518C1.48003 31.0361 2.09187 32.0426 3.08858 33.0393C4.0853 34.0361 5.09187 34.6578 6.27608 35.1117C7.42082 35.5558 8.73332 35.8617 10.6478 35.9505C12.5721 36.0393 13.184 36.0591 18.0688 36.0591C22.9636 36.0591 23.5754 36.0393 25.4899 35.9505C27.4044 35.8617 28.7169 35.5558 29.8616 35.1117C31.0458 34.6479 32.0524 34.0361 33.0491 33.0393C34.0458 32.0426 34.6675 31.0361 35.1215 29.8518C35.5656 28.7071 35.8715 27.3946 35.9603 25.4801C36.0491 23.5558 36.0688 22.944 36.0688 18.0591C36.0688 13.1742 36.0491 12.5525 35.9603 10.638ZM32.7235 25.3321C32.6445 27.0887 32.3485 28.0459 32.1017 28.6775C31.7761 29.5163 31.3813 30.1183 30.7498 30.7499C30.1182 31.3815 29.5162 31.7663 28.6774 32.1018C28.0458 32.3486 27.0886 32.6446 25.332 32.7236C23.4373 32.8124 22.8649 32.8321 18.059 32.8321C13.2531 32.8321 12.6807 32.8124 10.786 32.7236C9.02937 32.6446 8.07214 32.3486 7.44056 32.1018C6.60174 31.7762 5.99977 31.3815 5.36819 30.7499C4.73661 30.1183 4.35174 29.5163 4.01622 28.6775C3.76951 28.0459 3.47345 27.0887 3.39451 25.3321C3.30569 23.4374 3.28595 22.865 3.28595 18.0591C3.28595 13.2532 3.30569 12.6808 3.39451 10.7861C3.47345 9.02948 3.76951 8.07224 4.01622 7.44066C4.34187 6.60185 4.73661 5.99987 5.36819 5.36829C5.99977 4.73671 6.60174 4.35185 7.44056 4.01632C8.07214 3.76961 9.02937 3.47356 10.786 3.39461C12.6807 3.30579 13.2531 3.28606 18.059 3.28606C22.8649 3.28606 23.4373 3.30579 25.332 3.39461C27.0886 3.47356 28.0458 3.76961 28.6774 4.01632C29.5162 4.34198 30.1182 4.73671 30.7498 5.36829C31.3813 5.99987 31.7662 6.60185 32.1017 7.44066C32.3485 8.07224 32.6445 9.02948 32.7235 10.7861C32.8123 12.6808 32.832 13.2532 32.832 18.0591C32.832 22.865 32.8024 23.4374 32.7235 25.3321Z" fill="url(#paint0_linear_53_405)"/>
<path d="M18.059 8.8125C12.9472 8.8125 8.81232 12.9572 8.81232 18.0592C8.81232 23.1711 12.9571 27.3059 18.059 27.3059C23.161 27.3059 27.3057 23.1612 27.3057 18.0592C27.3057 12.9474 23.1709 8.8125 18.059 8.8125ZM18.059 24.0592C14.7432 24.0592 12.059 21.375 12.059 18.0592C12.059 14.7434 14.7432 12.0592 18.059 12.0592C21.3748 12.0592 24.059 14.7434 24.059 18.0592C24.059 21.375 21.3748 24.0592 18.059 24.0592Z" fill="#150E27"/>
<path d="M27.6711 10.6083C28.8646 10.6083 29.8322 9.64075 29.8322 8.44722C29.8322 7.25368 28.8646 6.28613 27.6711 6.28613C26.4776 6.28613 25.51 7.25368 25.51 8.44722C25.51 9.64075 26.4776 10.6083 27.6711 10.6083Z" fill="#150E27"/>
<path d="M0.0491943 18.0591C0.0491943 22.9538 0.0689312 23.5657 0.157747 25.4801C0.246563 27.3946 0.552484 28.7071 0.996563 29.8518C1.46038 31.0361 2.07222 32.0426 3.06893 33.0393C4.06564 34.0361 5.07222 34.6578 6.25643 35.1117C7.40117 35.5558 8.71367 35.8617 10.6281 35.9505C12.5525 36.0393 13.1643 36.0591 18.0492 36.0591C22.9439 36.0591 23.5558 36.0393 25.4702 35.9505C27.3847 35.8617 28.6972 35.5558 29.842 35.1117C31.0262 34.6479 32.0327 34.0361 33.0295 33.0393C34.0262 32.0426 34.6479 31.0361 35.1018 29.8518C35.5459 28.7071 35.8518 27.3946 35.9406 25.4801C36.0295 23.5558 36.0492 22.944 36.0492 18.0591C36.0492 13.1643 36.0295 12.5525 35.9406 10.638C35.8518 8.72356 35.5459 7.41106 35.1018 6.26632C34.638 5.08211 34.0262 4.07553 33.0295 3.07882C32.0327 2.08211 31.0262 1.4604 29.842 1.00645C28.6972 0.562372 27.3847 0.25645 25.4702 0.167635C23.5459 0.0788189 22.9341 0.059082 18.0492 0.059082C13.1545 0.059082 12.5426 0.0788189 10.6281 0.167635C8.71367 0.25645 7.40117 0.562372 6.25643 1.00645C5.07222 1.47027 4.06564 2.08211 3.06893 3.07882C2.07222 4.07553 1.45051 5.08211 0.996563 6.26632C0.552484 7.41106 0.246563 8.72356 0.157747 10.638C0.0689312 12.5525 0.0491943 13.1643 0.0491943 18.0591ZM3.29591 18.0591C3.29591 13.2532 3.31564 12.6808 3.40446 10.7861C3.48341 9.02948 3.77946 8.07224 4.02617 7.44066C4.35183 6.60185 4.74656 5.99987 5.37814 5.36829C6.00972 4.73671 6.61169 4.35185 7.45051 4.01632C8.08209 3.76961 9.03933 3.47356 10.7959 3.39461C12.6906 3.30579 13.263 3.28606 18.0689 3.28606C22.8749 3.28606 23.4472 3.30579 25.342 3.39461C27.0985 3.47356 28.0558 3.76961 28.6874 4.01632C29.5262 4.34198 30.1281 4.73671 30.7597 5.36829C31.3913 5.99987 31.7762 6.60185 32.1117 7.44066C32.3584 8.07224 32.6545 9.02948 32.7334 10.7861C32.8222 12.6808 32.842 13.2532 32.842 18.0591C32.842 22.865 32.8222 23.4374 32.7334 25.3321C32.6545 27.0887 32.3584 28.0459 32.1117 28.6775C31.786 29.5163 31.3913 30.1183 30.7597 30.7499C30.1281 31.3815 29.5262 31.7663 28.6874 32.1018C28.0558 32.3486 27.0985 32.6446 25.342 32.7236C23.4472 32.8124 22.8749 32.8321 18.0689 32.8321C13.263 32.8321 12.6906 32.8124 10.7959 32.7236C9.03933 32.6446 8.08209 32.3486 7.45051 32.1018C6.61169 31.7762 6.00972 31.3815 5.37814 30.7499C4.74656 30.1183 4.36169 29.5163 4.02617 28.6775C3.77946 28.0459 3.48341 27.0887 3.40446 25.3321C3.31564 23.4374 3.29591 22.865 3.29591 18.0591Z" fill="#150E27"/>
</g>
<defs>
<linearGradient id="paint0_linear_53_405" x1="11.8153" y1="-2.82848" x2="23.6114" y2="36.6336" gradientUnits="userSpaceOnUse">
<stop stop-color="#4367DC"/>
<stop offset="0.04289" stop-color="#4C62D6"/>
<stop offset="0.1142" stop-color="#6654C7"/>
<stop offset="0.2045" stop-color="#8F3DAE"/>
<stop offset="0.2341" stop-color="#9E35A5"/>
<stop offset="0.4512" stop-color="#D42F7F"/>
<stop offset="0.8242" stop-color="#D73578"/>
</linearGradient>
<clipPath id="clip0_53_405">
<rect width="36" height="36" fill="white"/>
</clipPath>
</defs>
</svg>
