<svg width="440" height="440" viewBox="0 0 440 440" fill="none" xmlns="http://www.w3.org/2000/svg">
<path d="M220 220L220 0C278.348 0 334.305 23.1785 375.563 64.4365L220 220Z" fill="#CA498C"/>
<path d="M220 220L375.563 64.4365C416.822 105.695 440 161.652 440 220H220Z" fill="#FDE3DF"/>
<path d="M220 220H440C440 278.348 416.822 334.305 375.563 375.563L220 220Z" fill="#E6BFCE"/>
<path d="M220 220L375.563 375.563C334.305 416.822 278.348 440 220 440L220 220Z" fill="#CF9BBD"/>
<path d="M220 220V440C161.652 440 105.695 416.822 64.4365 375.563L220 220Z" fill="#B977AC"/>
<path d="M220 220L64.4365 375.563C23.1785 334.305 0 278.348 0 220H220Z" fill="#A2539B"/>
<path d="M220 220H0C0 161.652 23.1785 105.695 64.4365 64.4365L220 220Z" fill="#8B2F8A"/>
<path d="M220 220L64.4365 64.4365C105.695 23.1785 161.652 0 220 0V220Z" fill="#D770A1"/>
</svg>
