<svg xmlns="http://www.w3.org/2000/svg" xmlns:xlink="http://www.w3.org/1999/xlink" viewBox="0 0 257.49 297.3"><defs><style>.cls-1{opacity:0.5;}.cls-2,.cls-7{fill:none;stroke-miterlimit:10;}.cls-2{stroke:#575463;stroke-width:0.67px;}.cls-3{opacity:0.3;}.cls-4{fill:#830be3;}.cls-5{fill:#4801fa;}.cls-6{fill:url(#未命名漸層_12);}.cls-7{stroke:#150e27;stroke-width:1.79px;}</style><linearGradient id="未命名漸層_12" x1="129.93" y1="244.99" x2="152.95" y2="205.12" gradientUnits="userSpaceOnUse"><stop offset="0" stop-color="#4801fa"/><stop offset="0.39" stop-color="#4801f8"/><stop offset="0.53" stop-color="#4602f1"/><stop offset="0.63" stop-color="#4302e6"/><stop offset="0.71" stop-color="#3f03d5"/><stop offset="0.78" stop-color="#3a05bf"/><stop offset="0.84" stop-color="#3306a3"/><stop offset="0.89" stop-color="#2b0883"/><stop offset="0.94" stop-color="#220b5d"/><stop offset="0.99" stop-color="#180d34"/><stop offset="1" stop-color="#150e27"/></linearGradient></defs><g id="圖層_2" data-name="圖層 2"><g id="Sketch"><g class="cls-1"><polyline class="cls-2" points="86.14 271.67 128.75 247.06 171.36 271.67"/><polyline class="cls-2" points="213.98 197.85 256.6 173.27 213.96 148.66 256.6 124.06 213.97 99.46 213.97 50.25 171.35 74.84 171.36 25.65 128.75 50.24 86.14 25.64 86.15 74.84 43.51 50.24 43.53 99.44 0.9 124.03 43.53 148.65 0.9 173.24 43.51 197.85"/><line class="cls-2" x1="86.15" y1="124.05" x2="171.36" y2="173.27"/><line class="cls-2" x1="128.75" y1="99.46" x2="128.75" y2="197.85"/><line class="cls-2" x1="171.36" y1="124.06" x2="86.13" y2="173.25"/></g><g class="cls-3"><polygon class="cls-4" points="128.74 197.87 86.15 222.46 128.75 247.06 128.75 197.87 128.74 197.87"/><polygon class="cls-5" points="171.36 222.49 171.36 271.66 171.36 271.67 171.36 271.67 213.96 247.07 171.37 222.48 171.36 222.49"/><polygon class="cls-5" points="213.96 247.07 213.98 247.06 213.98 197.88 171.37 222.48 213.96 247.07"/><polygon class="cls-5" points="128.75 247.06 171.34 222.47 128.75 197.88 128.75 247.06"/><polygon class="cls-5" points="171.36 173.28 171.36 222.46 213.96 197.86 171.37 173.27 171.36 173.28"/><polygon class="cls-5" points="128.77 197.86 171.36 222.45 171.36 173.28 171.36 173.27 128.77 197.86"/><polygon class="cls-4" points="213.98 148.64 213.98 99.46 171.39 124.05 213.98 148.64"/><polygon class="cls-4" points="213.98 197.85 213.98 197.85 213.98 197.85 213.98 148.67 171.39 173.26 213.98 197.85"/><polygon class="cls-4" points="213.96 148.66 171.36 124.07 171.36 173.25 213.96 148.66"/><polygon class="cls-5" points="86.13 222.48 86.13 222.47 86.11 222.46 43.51 247.06 43.51 247.06 43.51 247.06 86.13 271.67 86.14 271.67 86.13 271.66 86.13 222.48"/><polygon class="cls-5" points="86.11 222.46 43.51 197.87 43.51 197.85 43.51 197.85 43.51 247.06 43.51 247.06 86.11 222.46"/><polygon class="cls-5" points="86.13 173.26 86.12 173.26 43.51 197.85 43.51 197.85 86.12 222.46 86.13 222.45 86.13 173.26"/><polygon class="cls-5" points="86.13 173.27 86.13 173.27 86.13 173.27 86.13 222.45 128.72 197.86 86.13 173.27"/><polygon class="cls-4" points="43.51 99.45 43.51 99.45 43.51 99.45 43.51 148.64 86.11 124.04 43.51 99.45"/><polygon class="cls-4" points="43.51 148.66 43.51 197.85 86.11 173.25 43.51 148.66"/><polygon class="cls-4" points="86.13 124.05 43.53 148.65 86.13 173.24 86.13 124.05"/><polygon class="cls-5" points="171.38 124.05 213.97 99.46 171.36 74.86 171.36 124.04 171.38 124.05"/><polygon class="cls-5" points="86.13 74.84 43.53 99.44 86.13 124.03 86.13 74.84"/><polygon class="cls-5" points="171.36 124.03 171.36 74.86 128.78 99.44 171.36 124.03"/><polygon class="cls-5" points="86.13 74.85 86.13 124.03 128.72 99.44 86.13 74.85"/><polygon class="cls-5" points="128.75 99.43 128.75 99.43 171.35 74.84 128.75 50.25 128.75 50.25 128.75 99.43"/><polygon class="cls-5" points="128.75 99.43 128.75 50.24 86.15 74.84 128.74 99.43 128.75 99.43"/></g><polygon class="cls-5" points="171.36 222.49 171.36 271.67 171.36 271.67 171.36 271.67 213.96 247.08 171.37 222.49 171.36 222.49"/><polygon class="cls-5" points="213.96 247.08 213.98 247.07 213.98 197.88 171.37 222.49 213.96 247.08"/><polygon class="cls-5" points="171.36 173.28 171.36 222.46 213.96 197.87 171.37 173.28 171.36 173.28"/><polygon class="cls-5" points="128.77 197.86 171.36 222.46 171.36 173.28 171.36 173.28 128.77 197.86"/><polygon class="cls-4" points="213.98 197.86 213.98 197.86 213.98 197.86 213.98 148.67 171.39 173.27 213.98 197.86"/><polygon class="cls-4" points="213.96 148.66 171.36 124.07 171.36 173.25 213.96 148.66"/><polygon class="cls-5" points="86.13 222.48 86.13 222.47 86.11 222.47 43.51 247.06 43.51 247.06 43.51 247.07 86.13 271.67 86.14 271.67 86.13 271.67 86.13 222.48"/><polygon class="cls-5" points="86.11 222.47 43.51 197.87 43.51 197.86 43.51 197.86 43.51 247.06 43.51 247.06 86.11 222.47"/><polygon class="cls-5" points="86.13 173.27 86.12 173.26 43.51 197.86 43.51 197.86 86.12 222.46 86.13 222.46 86.13 173.27"/><polygon class="cls-5" points="86.13 173.27 86.13 173.27 86.13 173.27 86.13 222.46 128.72 197.86 86.13 173.27"/><polygon class="cls-4" points="43.51 148.66 43.51 197.85 86.11 173.26 43.51 148.66"/><polygon class="cls-4" points="86.13 124.06 43.53 148.65 86.13 173.25 86.13 124.06"/><polygon class="cls-5" points="171.36 124.04 171.36 74.86 128.78 99.45 171.36 124.04"/><polygon class="cls-5" points="86.13 74.85 86.13 124.04 128.72 99.44 86.13 74.85"/><path class="cls-5" d="M119.76,55.45,86.12,74.87l42.6,24.59,42.6-24.59L137.69,55.45A17.94,17.94,0,0,0,119.76,55.45Z"/><path class="cls-6" d="M137.69,241.89l33.63-19.42-42.6-24.59v46.41A17.93,17.93,0,0,0,137.69,241.89Z"/><path class="cls-4" d="M119.76,241.89a17.92,17.92,0,0,0,9,2.4V197.88l-42.6,24.59Z"/><path class="cls-5" d="M205,94.27,171.38,74.85V124l40.19-23.21A17.94,17.94,0,0,0,205,94.27Z"/><path class="cls-4" d="M214,109.8a18,18,0,0,0-2.4-9L171.39,124,214,148.64Z"/><path class="cls-5" d="M52.48,94.3,86.11,74.88v49.18l-40.19-23.2A17.79,17.79,0,0,1,52.48,94.3Z"/><path class="cls-4" d="M43.51,109.82a17.89,17.89,0,0,1,2.41-9l40.19,23.2-42.6,24.6Z"/><polyline class="cls-7" points="86.14 271.67 43.51 247.06 0.9 222.45 0.9 74.82 128.75 1.03 256.6 74.85 256.6 222.48 213.96 247.07 171.36 271.67"/><polyline class="cls-7" points="171.36 271.67 128.75 296.27 86.14 271.67"/></g></g></svg>