<svg width="61" height="89" viewBox="0 0 61 89" fill="none" xmlns="http://www.w3.org/2000/svg">
<path d="M19.7241 0.966675C10.5206 0.966675 3.03448 8.45274 3.03448 17.6563C3.03448 22.6873 5.28155 27.1942 8.81304 30.2565C3.57271 33.0744 0 38.6109 0 44.9667C0 50.6127 2.82709 55.6003 7.12985 58.6218C2.82709 61.6434 0 66.631 0 72.277C0 81.4806 7.48607 88.9667 16.6897 88.9667C25.8932 88.9667 33.3793 81.4806 33.3793 72.277V55.5874V34.346H44C53.2036 34.346 60.6896 26.8599 60.6896 17.6563C60.6896 8.45274 53.2036 0.966675 44 0.966675H19.7241ZM19.7241 7.03564H44C49.8565 7.03564 54.6207 11.7998 54.6207 17.6563C54.6207 23.5129 49.8565 28.277 44 28.277H33.3793H19.7241C13.8676 28.277 9.10345 23.5129 9.10345 17.6563C9.10345 11.7998 13.8676 7.03564 19.7241 7.03564ZM16.6897 34.346H19.7241H27.3103V55.5874H16.6897C10.8331 55.5874 6.06896 50.8232 6.06896 44.9667C6.06896 39.1101 10.8331 34.346 16.6897 34.346ZM45.5172 34.346C42.2981 34.346 39.2107 35.6248 36.9344 37.9011C34.6581 40.1774 33.3793 43.2647 33.3793 46.4839C33.3793 49.7031 34.6581 52.7904 36.9344 55.0667C39.2107 57.343 42.2981 58.6218 45.5172 58.6218C48.7364 58.6218 51.8237 57.343 54.1 55.0667C56.3764 52.7904 57.6552 49.7031 57.6552 46.4839C57.6552 43.2647 56.3764 40.1774 54.1 37.9011C51.8237 35.6248 48.7364 34.346 45.5172 34.346V34.346ZM16.6897 61.6563H27.3103V72.277C27.3103 78.1336 22.5462 82.8977 16.6897 82.8977C10.8331 82.8977 6.06896 78.1336 6.06896 72.277C6.06896 66.4205 10.8331 61.6563 16.6897 61.6563Z" fill="url(#paint0_linear_86_148)"/>
<defs>
<linearGradient id="paint0_linear_86_148" x1="7.96552" y1="0.966675" x2="51.5862" y2="0.966675" gradientUnits="userSpaceOnUse">
<stop stop-color="#830BE3"/>
<stop offset="1" stop-color="#4801FA"/>
</linearGradient>
</defs>
</svg>
