<svg width="88" height="86" viewBox="0 0 88 86" fill="none" xmlns="http://www.w3.org/2000/svg">
<path fill-rule="evenodd" clip-rule="evenodd" d="M15.5833 0H72.4167C81.0333 0 88 6.96667 88 15.5833V70.2167C88 78.8333 81.0333 85.8 72.4167 85.8H15.5833C6.96667 85.8 0 78.8333 0 70.2167V15.5833C0 6.96667 6.96667 0 15.5833 0ZM42.5333 51.3333H28.8933L26.1067 59.95C26.0333 60.28 25.74 60.5 25.41 60.4633H18.5167C18.1133 60.4633 18.0033 60.2433 18.1133 59.8033L29.92 25.8133C29.952 25.7065 29.9841 25.5966 30.017 25.4836L30.0171 25.4834L30.0171 25.4833C30.0973 25.2084 30.1828 24.9151 30.2867 24.6033C30.4333 23.8333 30.5067 23.0267 30.5067 22.22C30.47 22.0367 30.6167 21.8533 30.8 21.8167H30.91H40.2967C40.59 21.8167 40.7367 21.9267 40.7733 22.11L54.1567 59.8767C54.2667 60.28 54.1567 60.4633 53.79 60.4633H46.1267C45.87 60.5 45.6133 60.3167 45.54 60.06L42.5333 51.3333ZM31.02 43.89H40.3333C40.1133 43.12 39.82 42.2033 39.49 41.25C39.16 40.26 38.83 39.1967 38.5 38.0967C38.3168 37.5288 38.1428 36.9701 37.9688 36.4113L37.9683 36.41L37.968 36.409C37.794 35.8502 37.6199 35.2913 37.4367 34.7233C37.07 33.5867 36.74 32.5233 36.4467 31.46C36.3169 31.0057 36.1943 30.5659 36.0757 30.1403L36.0756 30.1402C35.9262 29.604 35.7831 29.0906 35.64 28.6H35.5667C35.2367 30.1767 34.8333 31.7533 34.32 33.33C34.1105 34.0004 33.901 34.6814 33.6895 35.3689C33.3457 36.4866 32.9966 37.6216 32.6333 38.7567C32.12 40.6267 31.57 42.35 31.02 43.89ZM59.07 26.95C59.95 27.7933 61.1233 28.27 62.3333 28.2333C63.58 28.3067 64.8267 27.83 65.67 26.95C66.55 26.0333 66.99 24.8233 66.9533 23.5767C66.99 22.3667 66.55 21.1933 65.7433 20.3133C64.9367 19.47 63.8367 19.03 62.4067 19.03C61.1967 19.03 60.0233 19.47 59.1433 20.3133C58.2633 21.1567 57.7867 22.33 57.8233 23.5767C57.7867 24.8233 58.2267 26.0333 59.07 26.95ZM58.2267 31.8267V60.06C58.2267 60.4267 58.41 60.6467 58.7767 60.6467H65.9633C66.2933 60.6467 66.44 60.4633 66.44 60.06V31.8267C66.44 31.4967 66.2933 31.3133 65.9633 31.3133H58.7033C58.3733 31.3133 58.2267 31.46 58.2267 31.8267Z" fill="url(#paint0_linear_86_127)"/>
<defs>
<linearGradient id="paint0_linear_86_127" x1="11.55" y1="-7.43494e-09" x2="74.8" y2="-5.02645e-08" gradientUnits="userSpaceOnUse">
<stop stop-color="#830BE3"/>
<stop offset="1" stop-color="#4801FA"/>
</linearGradient>
</defs>
</svg>
