<svg width="70" height="88" viewBox="0 0 70 88" fill="none" xmlns="http://www.w3.org/2000/svg">
<path d="M40.61 0C45.45 11.1994 23.2575 18.1156 21.195 27.445C19.3044 36.0181 34.3813 45.98 34.395 45.98C32.1056 42.4325 30.4213 39.5106 28.125 33.99C24.2406 24.6538 51.7819 16.2044 40.61 0ZM55.35 15.51C55.35 15.51 35.88 16.7613 34.89 29.205C34.45 34.7463 40.0119 37.6613 40.17 41.69C40.3006 44.9831 36.87 47.74 36.87 47.74C36.87 47.74 43.1125 46.5506 45.065 41.525C47.2306 35.9494 40.8438 32.1819 41.49 27.72C42.1088 23.4506 55.35 15.51 55.35 15.51ZM24.77 44.275C24.77 44.275 6.95002 44.0206 6.95002 49.06C6.95002 54.3263 30.2769 54.7181 46.935 51.48C46.935 51.48 51.3625 48.4344 52.545 47.3C41.6275 49.5275 16.74 49.775 16.74 47.85C16.74 46.0763 24.77 44.275 24.77 44.275ZM59.035 44.275C57.2888 44.4125 55.405 45.0863 53.7 46.31C57.715 45.4438 61.125 47.9325 61.125 50.765C61.125 57.145 51.885 63.14 51.885 63.14C51.885 63.14 66.185 61.5175 66.185 51.04C66.185 46.2825 62.8781 43.9725 59.035 44.275ZM20.48 54.065C17.7438 54.065 13.66 56.21 13.66 58.245C13.66 62.3356 34.23 65.4844 49.465 59.51L44.185 56.265C33.8588 59.5719 14.8425 58.4925 20.48 54.065ZM23.01 63.25C19.2631 63.25 16.795 65.5119 16.795 67.21C16.795 72.4625 39.1731 72.9919 48.035 67.65L42.425 64.075C35.8044 66.8731 19.1875 67.2994 23.01 63.25ZM10.525 67.98C4.42002 67.8563 0.460022 70.5994 0.460022 72.875C0.460022 84.975 62.94 84.4181 62.94 72.05C62.94 69.9944 60.5681 68.9975 59.695 68.53C64.8031 80.355 8.54502 79.4131 8.54502 72.435C8.54502 70.8469 12.6838 69.3275 16.52 70.07L13.275 68.2C12.3194 68.0556 11.3981 68.0006 10.525 67.98ZM69.54 76.12C60.0388 85.1263 35.9625 88.3919 11.735 82.83C35.9556 92.7438 69.4231 87.1819 69.54 76.12Z" fill="url(#paint0_linear_86_151)"/>
<defs>
<linearGradient id="paint0_linear_86_151" x1="9.52677" y1="-7.62433e-09" x2="59.178" y2="-3.33614e-08" gradientUnits="userSpaceOnUse">
<stop stop-color="#830BE3"/>
<stop offset="1" stop-color="#4801FA"/>
</linearGradient>
</defs>
</svg>
