<svg width="88" height="87" viewBox="0 0 88 87" fill="none" xmlns="http://www.w3.org/2000/svg">
<g clip-path="url(#clip0_33_180)">
<path fill-rule="evenodd" clip-rule="evenodd" d="M0 0.800049H88V86.9667H0V0.800049ZM60.72 35.4278C57.5599 35.4278 56.4801 37.0383 56.4801 38.367C56.4801 39.8165 57.2 40.8232 61.4401 43.0378C67.72 46.098 69.6801 49.0372 69.6801 53.3456C69.6801 59.7879 64.8001 63.2508 58.2001 63.2508C54.72 63.2508 51.7199 62.5259 50 61.5194C49.72 61.3986 49.68 61.1973 49.68 60.8751V54.9561C49.68 54.5535 49.88 54.4326 50.1601 54.6341C52.6801 56.285 55.5601 57.0097 58.2001 57.0097C61.3601 57.0097 62.68 55.681 62.68 53.869C62.68 52.4195 61.76 51.1311 57.7199 49.0373C52.0399 46.2993 49.68 43.5211 49.68 38.8906C49.68 33.6964 53.7201 29.388 60.72 29.388C64.16 29.388 66.56 29.9116 67.88 30.5155C68.2 30.7168 68.2799 31.0389 68.2799 31.3207V36.8368C68.2799 37.1589 68.0799 37.3604 67.6798 37.2395C65.9199 36.1124 63.32 35.4278 60.72 35.4278ZM26.3199 40.2193C27.24 40.2998 27.9601 40.2999 29.56 40.2999C34.2402 40.2999 38.6401 38.6491 38.6401 32.247C38.6401 27.1334 35.4801 24.5563 30.1601 24.5563C28.5602 24.5563 27.04 24.6369 26.3199 24.6771V40.2193ZM19.2001 18.8386C19.2001 18.5568 19.7603 18.3554 20.0801 18.3554C22.6402 18.2346 26.4401 18.1541 30.4001 18.1541C41.48 18.1541 45.7999 24.2743 45.7999 32.0858C45.7999 42.3129 38.4399 46.7019 29.4 46.7019C27.8801 46.7019 27.3602 46.6213 26.28 46.6213V62.083C26.28 62.4051 26.16 62.5662 25.8 62.5662H19.68C19.3601 62.5662 19.2 62.4453 19.2 62.083V18.8386H19.2001Z" fill="url(#paint0_linear_33_180)"/>
</g>
<defs>
<linearGradient id="paint0_linear_33_180" x1="11.55" y1="0.800049" x2="74.8" y2="0.800049" gradientUnits="userSpaceOnUse">
<stop stop-color="#830BE3"/>
<stop offset="1" stop-color="#4801FA"/>
</linearGradient>
<clipPath id="clip0_33_180">
<path d="M0 12.1C0 5.85923 5.05918 0.800049 11.3 0.800049H76.7C82.9408 0.800049 88 5.85923 88 12.1V75.6667C88 81.9075 82.9408 86.9667 76.7 86.9667H11.3C5.05919 86.9667 0 81.9075 0 75.6667V12.1Z" fill="white"/>
</clipPath>
</defs>
</svg>
